Normalized EMG Linear Envelopes
nRows=223
nColumns=4

endheader
time	 med_gas_r	  soleus_r	 tib_ant_r	
3.06048	  0.010356	  0.011920	  0.007542	
3.09375	  0.010455	  0.012038	  0.007069	
3.12702	  0.010475	  0.012114	  0.006625	
3.16028	  0.010415	  0.012147	  0.006247	
3.19355	  0.010318	  0.012140	  0.005934	
3.22681	  0.010239	  0.012106	  0.005717	
3.26008	  0.010186	  0.012061	  0.005612	
3.29335	  0.010114	  0.012000	  0.005615	
3.32661	  0.009989	  0.011931	  0.005733	
3.35988	  0.009847	  0.011847	  0.005950	
3.39315	  0.009749	  0.011738	  0.006227	
3.42641	  0.009712	  0.011621	  0.006503	
3.45968	  0.009724	  0.011523	  0.006769	
3.49294	  0.009765	  0.011468	  0.007069	
3.52621	  0.009830	  0.011462	  0.007430	
3.55948	  0.009919	  0.011523	  0.007881	
3.59274	  0.010031	  0.011671	  0.008465	
3.62601	  0.010172	  0.011882	  0.009212	
3.65927	  0.010341	  0.012076	  0.010071	
3.69254	  0.010518	  0.012174	  0.010908	
3.72581	  0.010655	  0.012162	  0.011631	
3.75907	  0.010684	  0.012077	  0.012298	
3.79234	  0.010574	  0.011942	  0.012975	
3.8256	  0.010368	  0.011773	  0.013657	
3.85887	  0.010167	  0.011579	  0.014345	
3.89214	  0.010030	  0.011380	  0.014853	
3.9254	  0.009952	  0.011229	  0.014990	
3.95867	  0.009930	  0.011170	  0.014909	
3.99194	  0.009980	  0.011187	  0.014916	
4.0252	  0.010115	  0.011263	  0.015206	
4.05847	  0.010343	  0.011401	  0.015767	
4.09173	  0.010660	  0.011595	  0.016392	
4.125	  0.011019	  0.011831	  0.016878	
4.15827	  0.011349	  0.012071	  0.017057	
4.19153	  0.011613	  0.012267	  0.016894	
4.2248	  0.011860	  0.012386	  0.016521	
4.25806	  0.012111	  0.012441	  0.016040	
4.29133	  0.012314	  0.012473	  0.015559	
4.3246	  0.012361	  0.012483	  0.015142	
4.35786	  0.012236	  0.012454	  0.014791	
4.39113	  0.012005	  0.012399	  0.014465	
4.4244	  0.011729	  0.012315	  0.014173	
4.45766	  0.011450	  0.012193	  0.013948	
4.49093	  0.011225	  0.012017	  0.013826	
4.52419	  0.011067	  0.011802	  0.013889	
4.55746	  0.010970	  0.011580	  0.014161	
4.59073	  0.010940	  0.011370	  0.014624	
4.62399	  0.010965	  0.011205	  0.015218	
4.65726	  0.010980	  0.011114	  0.015870	
4.69052	  0.010906	  0.011089	  0.016622	
4.72379	  0.010752	  0.011094	  0.017513	
4.75706	  0.010531	  0.011093	  0.018431	
4.79032	  0.010253	  0.011093	  0.019257	
4.82359	  0.009995	  0.011104	  0.020027	
4.85685	  0.009834	  0.011152	  0.020864	
4.89012	  0.009811	  0.011237	  0.021864	
4.92339	  0.009964	  0.011335	  0.023056	
4.95665	  0.010285	  0.011451	  0.024412	
4.98992	  0.010727	  0.011594	  0.025756	
5.02319	  0.011238	  0.011760	  0.026874	
5.05645	  0.011777	  0.011947	  0.027799	
5.08972	  0.012276	  0.012133	  0.028700	
5.12298	  0.012677	  0.012274	  0.029615	
5.15625	  0.012914	  0.012346	  0.030515	
5.18952	  0.012918	  0.012345	  0.031424	
5.22278	  0.012715	  0.012257	  0.032333	
5.25605	  0.012374	  0.012062	  0.033313	
5.28931	  0.011951	  0.011748	  0.034482	
5.32258	  0.011505	  0.011344	  0.035923	
5.35585	  0.011051	  0.010893	  0.038132	
5.38911	  0.010570	  0.010470	  0.041811	
5.42238	  0.010125	  0.010149	  0.047588	
5.45565	  0.009830	  0.009995	  0.056170	
5.48891	  0.009735	  0.010061	  0.068161	
5.52218	  0.009895	  0.010421	  0.084531	
5.55544	  0.010381	  0.011188	  0.107482	
5.58871	  0.011306	  0.012538	  0.139576	
5.62198	  0.012826	  0.014686	  0.182376	
5.65524	  0.015038	  0.017787	  0.235403	
5.68851	  0.017926	  0.021866	  0.296609	
5.72177	  0.021341	  0.026784	  0.361262	
5.75504	  0.025042	  0.032238	  0.421943	
5.78831	  0.028884	  0.037910	  0.470853	
5.82157	  0.032752	  0.043517	  0.504202	
5.85484	  0.036480	  0.048818	  0.523039	
5.8881	  0.040173	  0.054005	  0.533289	
5.92137	  0.043834	  0.059257	  0.541402	
5.95464	  0.047318	  0.064255	  0.551969	
5.9879	  0.050336	  0.068317	  0.567353	
6.02117	  0.052714	  0.070967	  0.589186	
6.05444	  0.054395	  0.072411	  0.616793	
6.0877	  0.055540	  0.073702	  0.647537	
6.12097	  0.056445	  0.075932	  0.675868	
6.15423	  0.057192	  0.079382	  0.700108	
6.1875	  0.057987	  0.083865	  0.717101	
6.22077	  0.059290	  0.089319	  0.730375	
6.25403	  0.061227	  0.095468	  0.741345	
6.2873	  0.063438	  0.101565	  0.748979	
6.32056	  0.065730	  0.107250	  0.756272	
6.35383	  0.068028	  0.112052	  0.765090	
6.3871	  0.070173	  0.115370	  0.776427	
6.42036	  0.071880	  0.116820	  0.791949	
6.45363	  0.072922	  0.116609	  0.808892	
6.4869	  0.073014	  0.114932	  0.823068	
6.52016	  0.072001	  0.111724	  0.830246	
6.55343	  0.069788	  0.107241	  0.829134	
6.58669	  0.066488	  0.102198	  0.824627	
6.61996	  0.062917	  0.097682	  0.820642	
6.65323	  0.059594	  0.093997	  0.813208	
6.68649	  0.056853	  0.090989	  0.797463	
6.71976	  0.055143	  0.089120	  0.774239	
6.75302	  0.054520	  0.088416	  0.747083	
6.78629	  0.054497	  0.088649	  0.719781	
6.81956	  0.055003	  0.090084	  0.694629	
6.85282	  0.056389	  0.093029	  0.675764	
6.88609	  0.058740	  0.097364	  0.663960	
6.91935	  0.061629	  0.102612	  0.657001	
6.95262	  0.064433	  0.108034	  0.654573	
6.98589	  0.066604	  0.112818	  0.657711	
7.01915	  0.067528	  0.115841	  0.663884	
7.05242	  0.067296	  0.116835	  0.670685	
7.08569	  0.066209	  0.116360	  0.679134	
7.11895	  0.064624	  0.114915	  0.690112	
7.15222	  0.062578	  0.112617	  0.703821	
7.18548	  0.059969	  0.109623	  0.718412	
7.21875	  0.057332	  0.106683	  0.730381	
7.25202	  0.055584	  0.104841	  0.737004	
7.28528	  0.055423	  0.104957	  0.737804	
7.31855	  0.057082	  0.107133	  0.734292	
7.35181	  0.060351	  0.111006	  0.725097	
7.38508	  0.064524	  0.116107	  0.711165	
7.41835	  0.068521	  0.121002	  0.693720	
7.45161	  0.072097	  0.124691	  0.676285	
7.48488	  0.075262	  0.127585	  0.663226	
7.51815	  0.077414	  0.129606	  0.655318	
7.55141	  0.078246	  0.130476	  0.655894	
7.58468	  0.077674	  0.129723	  0.668408	
7.61794	  0.076014	  0.127191	  0.693174	
7.65121	  0.074156	  0.123386	  0.726396	
7.68448	  0.072702	  0.119332	  0.762711	
7.71774	  0.071686	  0.115698	  0.797654	
7.75101	  0.071161	  0.112795	  0.830064	
7.78427	  0.070870	  0.110418	  0.857597	
7.81754	  0.070359	  0.108245	  0.875639	
7.85081	  0.069387	  0.106302	  0.879710	
7.88407	  0.068135	  0.104448	  0.866326	
7.91734	  0.066780	  0.102619	  0.837059	
7.9506	  0.065629	  0.101314	  0.803465	
7.98387	  0.064910	  0.101152	  0.774613	
8.01714	  0.064841	  0.102422	  0.752538	
8.0504	  0.065625	  0.105309	  0.736059	
8.08367	  0.067303	  0.109347	  0.725736	
8.11694	  0.069765	  0.113690	  0.717845	
8.1502	  0.072323	  0.117500	  0.710087	
8.18347	  0.073943	  0.119533	  0.700286	
8.21673	  0.074152	  0.119258	  0.690463	
8.25	  0.072627	  0.116871	  0.683263	
8.28327	  0.069410	  0.112550	  0.676120	
8.31653	  0.065206	  0.106871	  0.664827	
8.3498	  0.061041	  0.100982	  0.651105	
8.38306	  0.057790	  0.096198	  0.637868	
8.41633	  0.055816	  0.093105	  0.630703	
8.4496	  0.055151	  0.091837	  0.634301	
8.48286	  0.055612	  0.092158	  0.649945	
8.51613	  0.057033	  0.093859	  0.677846	
8.5494	  0.059096	  0.096625	  0.711232	
8.58266	  0.061402	  0.099760	  0.741617	
8.61593	  0.063499	  0.102527	  0.764946	
8.64919	  0.065010	  0.104314	  0.781089	
8.68246	  0.066052	  0.105240	  0.791675	
8.71573	  0.066685	  0.105260	  0.798201	
8.74899	  0.067066	  0.104324	  0.805937	
8.78226	  0.067438	  0.102896	  0.816687	
8.81552	  0.068093	  0.101645	  0.830477	
8.84879	  0.068872	  0.100382	  0.844210	
8.88206	  0.069309	  0.098554	  0.852129	
8.91532	  0.069080	  0.095787	  0.848166	
8.94859	  0.068239	  0.092191	  0.830672	
8.98185	  0.066843	  0.088131	  0.801594	
9.01512	  0.064878	  0.083958	  0.769822	
9.04839	  0.062255	  0.079857	  0.741219	
9.08165	  0.058974	  0.075800	  0.717011	
9.11492	  0.055412	  0.072054	  0.696634	
9.14819	  0.051889	  0.068814	  0.678407	
9.18145	  0.048829	  0.066640	  0.661263	
9.21472	  0.046490	  0.065841	  0.645492	
9.24798	  0.045076	  0.066382	  0.630259	
9.28125	  0.044595	  0.068030	  0.618044	
9.31452	  0.044871	  0.070321	  0.613323	
9.34778	  0.045843	  0.073228	  0.617332	
9.38105	  0.047402	  0.076619	  0.626679	
9.41431	  0.049111	  0.079830	  0.633239	
9.44758	  0.050761	  0.082794	  0.631007	
9.48085	  0.052511	  0.085519	  0.620508	
9.51411	  0.054501	  0.087792	  0.607596	
9.54738	  0.056529	  0.089521	  0.598655	
9.58065	  0.058285	  0.090858	  0.596853	
9.61391	  0.059341	  0.091656	  0.600159	
9.64718	  0.059669	  0.092004	  0.604536	
9.68044	  0.059476	  0.091921	  0.608945	
9.71371	  0.058744	  0.090889	  0.614235	
9.74698	  0.057422	  0.088517	  0.621002	
9.78024	  0.055794	  0.084922	  0.628072	
9.81351	  0.054450	  0.081036	  0.633253	
9.84677	  0.053818	  0.078180	  0.637255	
9.88004	  0.053929	  0.076805	  0.641845	
9.91331	  0.054613	  0.076561	  0.650927	
9.94657	  0.055653	  0.076696	  0.662080	
9.97984	  0.057011	  0.077112	  0.669533	
10.0131	  0.058608	  0.077925	  0.673317	
10.0464	  0.060160	  0.078778	  0.678434	
10.0796	  0.061175	  0.079026	  0.685346	
10.1129	  0.061451	  0.078537	  0.693411	
10.1462	  0.060989	  0.077497	  0.699814	
10.1794	  0.060015	  0.076166	  0.697053	
10.2127	  0.058804	  0.074731	  0.682698	
10.246	  0.057483	  0.073190	  0.659057	
10.2792	  0.055888	  0.071372	  0.629580	
10.3125	  0.053879	  0.069165	  0.597387	
10.3458	  0.051752	  0.066977	  0.567087	
10.379	  0.049826	  0.065302	  0.542500	
10.4123	  0.048325	  0.064437	  0.527603	
10.4456	  0.047054	  0.064073	  0.520904	
